<svg width="25" height="25" viewBox="0 0 25 25" fill="none" xmlns="http://www.w3.org/2000/svg">
<path d="M14.2857 0H17.8214C18.0786 1.11719 18.7857 2.52656 20.0268 3.925C21.2411 5.29531 22.8518 6.25 25 6.25V9.375C21.8696 9.375 19.5179 8.10312 17.8571 6.51719V17.1875C17.8571 18.7327 17.3335 20.2431 16.3524 21.5279C15.3713 22.8126 13.9769 23.814 12.3454 24.4053C10.7139 24.9966 8.91867 25.1513 7.1867 24.8499C5.45472 24.5484 3.8638 23.8044 2.61512 22.7118C1.36644 21.6192 0.516075 20.2271 0.171564 18.7116C-0.172947 17.1962 0.00386861 15.6253 0.679651 14.1978C1.35543 12.7702 2.49983 11.5501 3.96813 10.6916C5.43642 9.83319 7.16267 9.375 8.92857 9.375V12.5C7.86903 12.5 6.83328 12.7749 5.9523 13.29C5.07133 13.8051 4.38469 14.5371 3.97922 15.3937C3.57375 16.2502 3.46766 17.1927 3.67437 18.102C3.88107 19.0113 4.39129 19.8465 5.1405 20.5021C5.88971 21.1576 6.84426 21.6041 7.88345 21.7849C8.92263 21.9658 9.99977 21.873 10.9787 21.5182C11.9576 21.1634 12.7942 20.5626 13.3829 19.7917C13.9715 19.0209 14.2857 18.1146 14.2857 17.1875V0Z" fill="white"/>
</svg>
